<?xml version="1.0" encoding="UTF-8"?>
<svg id="Layer_2" data-name="Layer 2" xmlns="http://www.w3.org/2000/svg" xmlns:xlink="http://www.w3.org/1999/xlink" viewBox="0 0 881.67 881.67">
  <defs>
    <style>
      .cls-1 {
        fill: url(#linear-gradient-2);
      }

      .cls-2 {
        fill: #fff;
      }

      .cls-3 {
        fill: none;
      }

      .cls-4 {
        clip-path: url(#clippath-1);
      }

      .cls-5 {
        fill: #472a89;
      }

      .cls-6 {
        fill: url(#linear-gradient);
      }

      .cls-7 {
        clip-path: url(#clippath);
      }
    </style>
    <clipPath id="clippath">
      <path class="cls-3" d="M440.83,23.62C210.42,23.62,23.62,210.42,23.62,440.84s186.79,417.21,417.21,417.21,417.21-186.79,417.21-417.21S671.25,23.62,440.83,23.62ZM343.5,658.62c-120.28,0-217.79-97.51-217.79-217.79s97.51-217.79,217.79-217.79,217.79,97.51,217.79,217.79-97.51,217.79-217.79,217.79Z"/>
    </clipPath>
    <clipPath id="clippath-1">
      <circle class="cls-3" cx="440.84" cy="440.84" r="417.21"/>
    </clipPath>
    <linearGradient id="linear-gradient" x1="854.44" y1="624.52" x2="304.11" y2="306.78" gradientUnits="userSpaceOnUse">
      <stop offset=".14" stop-color="#f69e57"/>
      <stop offset=".37" stop-color="#e87674"/>
      <stop offset=".87" stop-color="#5d42ec"/>
    </linearGradient>
    <linearGradient id="linear-gradient-2" x1="232.23" y1="857.1" x2="232.23" y2="24.57" gradientUnits="userSpaceOnUse">
      <stop offset="0" stop-color="#fcca3c"/>
      <stop offset="1" stop-color="#82d54c"/>
    </linearGradient>
  </defs>
  <g id="Layer_3" data-name="Layer 3">
    <g>
      <circle class="cls-2" cx="440.83" cy="440.83" r="440.83"/>
      <g id="logo">
        <path class="cls-5" d="M343.5,260.38c-99.66,0-180.46,80.79-180.46,180.46s80.79,180.46,180.46,180.46,180.46-80.79,180.46-180.46-80.79-180.46-180.46-180.46ZM343.5,534.45c-51.7,0-93.61-41.91-93.61-93.61s41.91-93.61,93.61-93.61,93.61,41.91,93.61,93.61-41.91,93.61-93.61,93.61Z"/>
        <g class="cls-7">
          <g>
            <g class="cls-4">
              <path class="cls-6" d="M596.04,95.63V31.56c0-17.67-14.33-32-32-32h-64.07c-17.67,0-32,14.33-32,32v64.07c0,17.67,14.33,32,32,32h64.07c17.67,0,32-14.33,32-32ZM596.04,245.53v-64.07c0-17.67-14.33-32-32-32h-64.07c-17.67,0-32,14.33-32,32v64.07c0,17.67,14.33,32,32,32h64.07c17.67,0,32-14.33,32-32ZM596.04,395.44v-64.07c0-17.67-14.33-32-32-32h-64.07c-17.67,0-32,14.33-32,32v64.07c0,17.67,14.33,32,32,32h64.07c17.67,0,32-14.33,32-32ZM596.04,545.34v-64.07c0-17.67-14.33-32-32-32h-64.07c-17.67,0-32,14.33-32,32v64.07c0,17.67,14.33,32,32,32h64.07c17.67,0,32-14.33,32-32ZM596.04,695.25v-64.07c0-17.67-14.33-32-32-32h-64.07c-17.67,0-32,14.33-32,32v64.07c0,17.67,14.33,32,32,32h64.07c17.67,0,32-14.33,32-32ZM596.04,845.15v-64.07c0-17.67-14.33-32-32-32h-64.07c-17.67,0-32,14.33-32,32v64.07c0,17.67,14.33,32,32,32h64.07c17.67,0,32-14.33,32-32ZM745.62,245.53v-64.07c0-17.67-14.33-32-32-32h-64.07c-17.67,0-32,14.33-32,32v64.07c0,17.67,14.33,32,32,32h64.07c17.67,0,32-14.33,32-32ZM745.62,395.44v-64.07c0-17.67-14.33-32-32-32h-64.07c-17.67,0-32,14.33-32,32v64.07c0,17.67,14.33,32,32,32h64.07c17.67,0,32-14.33,32-32ZM745.62,545.34v-64.07c0-17.67-14.33-32-32-32h-64.07c-17.67,0-32,14.33-32,32v64.07c0,17.67,14.33,32,32,32h64.07c17.67,0,32-14.33,32-32ZM745.62,695.25v-64.07c0-17.67-14.33-32-32-32h-64.07c-17.67,0-32,14.33-32,32v64.07c0,17.67,14.33,32,32,32h64.07c17.67,0,32-14.33,32-32ZM895.2,395.44v-64.07c0-17.67-14.33-32-32-32h-64.07c-17.67,0-32,14.33-32,32v64.07c0,17.67,14.33,32,32,32h64.07c17.67,0,32-14.33,32-32ZM895.2,545.34v-64.07c0-17.67-14.33-32-32-32h-64.07c-17.67,0-32,14.33-32,32v64.07c0,17.67,14.33,32,32,32h64.07c17.67,0,32-14.33,32-32Z"/>
            </g>
            <path class="cls-1" d="M343.5,658.62c-120.28,0-217.79-97.51-217.79-217.79s97.51-217.79,217.79-217.79c34.99,0,87.95,19.47,87.95,19.47,5.16,1.9,9.39.67,9.39-2.72V33.62c0-5.5-4.48-9.55-9.95-9.01,0,0-100.97,10.05-152.48,31.84-49.69,21.02-94.3,51.09-132.58,89.37-38.28,38.28-68.35,82.89-89.37,132.58-21.78,51.5-32.83,106.15-32.83,162.43s11.05,110.93,32.83,162.43c21.02,49.69,51.09,94.3,89.37,132.58,38.28,38.28,82.89,68.35,132.58,89.37,51.5,21.78,152.48,31.84,152.48,31.84,5.47.54,9.95-3.51,9.95-9.01v-204.13c0-2.27-4.22-6.66-9.39-4.76,0,0-52.96,19.47-87.95,19.47Z"/>
          </g>
        </g>
      </g>
    </g>
  </g>
</svg>