<?xml version="1.0" encoding="UTF-8"?>
<svg id="Layer_2" data-name="Layer 2" xmlns="http://www.w3.org/2000/svg" xmlns:xlink="http://www.w3.org/1999/xlink" viewBox="0 0 871.57 877.6">
  <defs>
    <style>
      .cls-1 {
        fill: url(#linear-gradient-2);
      }

      .cls-2 {
        fill: none;
      }

      .cls-3 {
        clip-path: url(#clippath-1);
      }

      .cls-4 {
        fill: #472a89;
      }

      .cls-5 {
        fill: url(#linear-gradient);
      }

      .cls-6 {
        clip-path: url(#clippath);
      }
    </style>
    <clipPath id="clippath">
      <path class="cls-2" d="M417.21,24.07C186.79,24.07,0,210.86,0,441.28s186.79,417.21,417.21,417.21,417.21-186.79,417.21-417.21S647.63,24.07,417.21,24.07ZM319.88,659.07c-120.28,0-217.79-97.51-217.79-217.79s97.51-217.79,217.79-217.79,217.79,97.51,217.79,217.79-97.51,217.79-217.79,217.79Z"/>
    </clipPath>
    <clipPath id="clippath-1">
      <circle class="cls-2" cx="417.21" cy="441.28" r="417.21"/>
    </clipPath>
    <linearGradient id="linear-gradient" x1="830.82" y1="624.96" x2="280.48" y2="307.22" gradientUnits="userSpaceOnUse">
      <stop offset=".14" stop-color="#f69e57"/>
      <stop offset=".37" stop-color="#e87674"/>
      <stop offset=".87" stop-color="#5d42ec"/>
    </linearGradient>
    <linearGradient id="linear-gradient-2" x1="208.61" y1="857.55" x2="208.61" y2="25.01" gradientUnits="userSpaceOnUse">
      <stop offset="0" stop-color="#fcca3c"/>
      <stop offset="1" stop-color="#82d54c"/>
    </linearGradient>
  </defs>
  <g id="Layer_1-2" data-name="Layer 1">
    <g id="logo">
      <path class="cls-4" d="M319.88,260.82c-99.66,0-180.46,80.79-180.46,180.46s80.79,180.46,180.46,180.46,180.46-80.79,180.46-180.46-80.79-180.46-180.46-180.46ZM319.88,534.89c-51.7,0-93.61-41.91-93.61-93.61s41.91-93.61,93.61-93.61,93.61,41.91,93.61,93.61-41.91,93.61-93.61,93.61Z"/>
      <g class="cls-6">
        <g>
          <g class="cls-3">
            <path class="cls-5" d="M572.41,96.07V32c0-17.67-14.33-32-32-32h-64.07c-17.67,0-32,14.33-32,32v64.07c0,17.67,14.33,32,32,32h64.07c17.67,0,32-14.33,32-32ZM572.41,245.98v-64.07c0-17.67-14.33-32-32-32h-64.07c-17.67,0-32,14.33-32,32v64.07c0,17.67,14.33,32,32,32h64.07c17.67,0,32-14.33,32-32ZM572.41,395.88v-64.07c0-17.67-14.33-32-32-32h-64.07c-17.67,0-32,14.33-32,32v64.07c0,17.67,14.33,32,32,32h64.07c17.67,0,32-14.33,32-32ZM572.41,545.79v-64.07c0-17.67-14.33-32-32-32h-64.07c-17.67,0-32,14.33-32,32v64.07c0,17.67,14.33,32,32,32h64.07c17.67,0,32-14.33,32-32ZM572.41,695.69v-64.07c0-17.67-14.33-32-32-32h-64.07c-17.67,0-32,14.33-32,32v64.07c0,17.67,14.33,32,32,32h64.07c17.67,0,32-14.33,32-32ZM572.41,845.6v-64.07c0-17.67-14.33-32-32-32h-64.07c-17.67,0-32,14.33-32,32v64.07c0,17.67,14.33,32,32,32h64.07c17.67,0,32-14.33,32-32ZM721.99,245.98v-64.07c0-17.67-14.33-32-32-32h-64.07c-17.67,0-32,14.33-32,32v64.07c0,17.67,14.33,32,32,32h64.07c17.67,0,32-14.33,32-32ZM721.99,395.88v-64.07c0-17.67-14.33-32-32-32h-64.07c-17.67,0-32,14.33-32,32v64.07c0,17.67,14.33,32,32,32h64.07c17.67,0,32-14.33,32-32ZM721.99,545.79v-64.07c0-17.67-14.33-32-32-32h-64.07c-17.67,0-32,14.33-32,32v64.07c0,17.67,14.33,32,32,32h64.07c17.67,0,32-14.33,32-32ZM721.99,695.69v-64.07c0-17.67-14.33-32-32-32h-64.07c-17.67,0-32,14.33-32,32v64.07c0,17.67,14.33,32,32,32h64.07c17.67,0,32-14.33,32-32ZM871.57,395.88v-64.07c0-17.67-14.33-32-32-32h-64.07c-17.67,0-32,14.33-32,32v64.07c0,17.67,14.33,32,32,32h64.07c17.67,0,32-14.33,32-32ZM871.57,545.79v-64.07c0-17.67-14.33-32-32-32h-64.07c-17.67,0-32,14.33-32,32v64.07c0,17.67,14.33,32,32,32h64.07c17.67,0,32-14.33,32-32Z"/>
          </g>
          <path class="cls-1" d="M319.88,659.07c-120.28,0-217.79-97.51-217.79-217.79s97.51-217.79,217.79-217.79c34.99,0,87.95,19.47,87.95,19.47,5.16,1.9,9.39.67,9.39-2.72V34.07c0-5.5-4.48-9.55-9.95-9.01,0,0-100.97,10.05-152.48,31.84-49.69,21.02-94.3,51.09-132.58,89.37-38.28,38.28-68.35,82.89-89.37,132.58C11.05,330.35,0,385,0,441.28s11.05,110.93,32.83,162.43c21.02,49.69,51.09,94.3,89.37,132.58,38.28,38.28,82.89,68.35,132.58,89.37,51.5,21.78,152.48,31.84,152.48,31.84,5.47.54,9.95-3.51,9.95-9.01v-204.13c0-2.27-4.22-6.66-9.39-4.76,0,0-52.96,19.47-87.95,19.47Z"/>
        </g>
      </g>
    </g>
  </g>
</svg>